G04 (created by PCBNEW (2013-07-07 BZR 4022)-stable) date 4/12/2015 3:28:36 PM*
%MOIN*%
G04 Gerber Fmt 3.4, Leading zero omitted, Abs format*
%FSLAX34Y34*%
G01*
G70*
G90*
G04 APERTURE LIST*
%ADD10C,0.00590551*%
%ADD11C,0.00984252*%
%ADD12C,0.011811*%
%ADD13C,0.0039*%
%ADD14C,0.005*%
%ADD15C,0.01*%
%ADD16C,0.015*%
G04 APERTURE END LIST*
G54D10*
G54D11*
X15056Y-9836D02*
X15037Y-9893D01*
X15037Y-9986D01*
X15056Y-10024D01*
X15074Y-10043D01*
X15112Y-10061D01*
X15149Y-10061D01*
X15187Y-10043D01*
X15206Y-10024D01*
X15224Y-9986D01*
X15243Y-9911D01*
X15262Y-9874D01*
X15281Y-9855D01*
X15318Y-9836D01*
X15356Y-9836D01*
X15393Y-9855D01*
X15412Y-9874D01*
X15431Y-9911D01*
X15431Y-10005D01*
X15412Y-10061D01*
X15037Y-10230D02*
X15431Y-10230D01*
X15431Y-10324D01*
X15412Y-10380D01*
X15374Y-10418D01*
X15337Y-10436D01*
X15262Y-10455D01*
X15206Y-10455D01*
X15131Y-10436D01*
X15093Y-10418D01*
X15056Y-10380D01*
X15037Y-10324D01*
X15037Y-10230D01*
X15149Y-10605D02*
X15149Y-10793D01*
X15037Y-10568D02*
X15431Y-10699D01*
X15037Y-10830D01*
X14111Y-9846D02*
X14092Y-9902D01*
X14092Y-9996D01*
X14111Y-10033D01*
X14130Y-10052D01*
X14167Y-10071D01*
X14205Y-10071D01*
X14242Y-10052D01*
X14261Y-10033D01*
X14280Y-9996D01*
X14298Y-9921D01*
X14317Y-9883D01*
X14336Y-9865D01*
X14373Y-9846D01*
X14411Y-9846D01*
X14448Y-9865D01*
X14467Y-9883D01*
X14486Y-9921D01*
X14486Y-10014D01*
X14467Y-10071D01*
X14130Y-10464D02*
X14111Y-10446D01*
X14092Y-10389D01*
X14092Y-10352D01*
X14111Y-10296D01*
X14148Y-10258D01*
X14186Y-10239D01*
X14261Y-10221D01*
X14317Y-10221D01*
X14392Y-10239D01*
X14430Y-10258D01*
X14467Y-10296D01*
X14486Y-10352D01*
X14486Y-10389D01*
X14467Y-10446D01*
X14448Y-10464D01*
X14092Y-10821D02*
X14092Y-10633D01*
X14486Y-10633D01*
X13383Y-9790D02*
X12990Y-9921D01*
X13383Y-10052D01*
X12990Y-10183D02*
X13383Y-10183D01*
X13383Y-10277D01*
X13365Y-10333D01*
X13327Y-10371D01*
X13290Y-10389D01*
X13215Y-10408D01*
X13158Y-10408D01*
X13083Y-10389D01*
X13046Y-10371D01*
X13008Y-10333D01*
X12990Y-10277D01*
X12990Y-10183D01*
X12990Y-10577D02*
X13383Y-10577D01*
X13383Y-10671D01*
X13365Y-10727D01*
X13327Y-10764D01*
X13290Y-10783D01*
X13215Y-10802D01*
X13158Y-10802D01*
X13083Y-10783D01*
X13046Y-10764D01*
X13008Y-10727D01*
X12990Y-10671D01*
X12990Y-10577D01*
X11554Y-8755D02*
X11572Y-8717D01*
X11572Y-8661D01*
X11554Y-8605D01*
X11516Y-8567D01*
X11479Y-8548D01*
X11404Y-8530D01*
X11347Y-8530D01*
X11272Y-8548D01*
X11235Y-8567D01*
X11197Y-8605D01*
X11179Y-8661D01*
X11179Y-8698D01*
X11197Y-8755D01*
X11216Y-8773D01*
X11347Y-8773D01*
X11347Y-8698D01*
X11179Y-8942D02*
X11572Y-8942D01*
X11179Y-9167D01*
X11572Y-9167D01*
X11179Y-9355D02*
X11572Y-9355D01*
X11572Y-9448D01*
X11554Y-9505D01*
X11516Y-9542D01*
X11479Y-9561D01*
X11404Y-9580D01*
X11347Y-9580D01*
X11272Y-9561D01*
X11235Y-9542D01*
X11197Y-9505D01*
X11179Y-9448D01*
X11179Y-9355D01*
G54D12*
X10336Y-9070D02*
X10312Y-9143D01*
X10287Y-9167D01*
X10239Y-9191D01*
X10165Y-9191D01*
X10117Y-9167D01*
X10092Y-9143D01*
X10068Y-9094D01*
X10068Y-8899D01*
X10580Y-8899D01*
X10580Y-9070D01*
X10555Y-9118D01*
X10531Y-9143D01*
X10482Y-9167D01*
X10434Y-9167D01*
X10385Y-9143D01*
X10360Y-9118D01*
X10336Y-9070D01*
X10336Y-8899D01*
X10068Y-9411D02*
X10580Y-9411D01*
X10214Y-9581D01*
X10580Y-9752D01*
X10068Y-9752D01*
X10336Y-9996D02*
X10336Y-10166D01*
X10068Y-10239D02*
X10068Y-9996D01*
X10580Y-9996D01*
X10580Y-10239D01*
X10531Y-10434D02*
X10555Y-10459D01*
X10580Y-10508D01*
X10580Y-10629D01*
X10555Y-10678D01*
X10531Y-10703D01*
X10482Y-10727D01*
X10434Y-10727D01*
X10360Y-10703D01*
X10068Y-10410D01*
X10068Y-10727D01*
X10360Y-11019D02*
X10385Y-10971D01*
X10409Y-10946D01*
X10458Y-10922D01*
X10482Y-10922D01*
X10531Y-10946D01*
X10555Y-10971D01*
X10580Y-11019D01*
X10580Y-11117D01*
X10555Y-11166D01*
X10531Y-11190D01*
X10482Y-11214D01*
X10458Y-11214D01*
X10409Y-11190D01*
X10385Y-11166D01*
X10360Y-11117D01*
X10360Y-11019D01*
X10336Y-10971D01*
X10312Y-10946D01*
X10263Y-10922D01*
X10165Y-10922D01*
X10117Y-10946D01*
X10092Y-10971D01*
X10068Y-11019D01*
X10068Y-11117D01*
X10092Y-11166D01*
X10117Y-11190D01*
X10165Y-11214D01*
X10263Y-11214D01*
X10312Y-11190D01*
X10336Y-11166D01*
X10360Y-11117D01*
X10580Y-11531D02*
X10580Y-11580D01*
X10555Y-11629D01*
X10531Y-11653D01*
X10482Y-11677D01*
X10385Y-11702D01*
X10263Y-11702D01*
X10165Y-11677D01*
X10117Y-11653D01*
X10092Y-11629D01*
X10068Y-11580D01*
X10068Y-11531D01*
X10092Y-11482D01*
X10117Y-11458D01*
X10165Y-11434D01*
X10263Y-11409D01*
X10385Y-11409D01*
X10482Y-11434D01*
X10531Y-11458D01*
X10555Y-11482D01*
X10580Y-11531D01*
X10336Y-12482D02*
X10312Y-12555D01*
X10287Y-12579D01*
X10239Y-12604D01*
X10165Y-12604D01*
X10117Y-12579D01*
X10092Y-12555D01*
X10068Y-12506D01*
X10068Y-12311D01*
X10580Y-12311D01*
X10580Y-12482D01*
X10555Y-12530D01*
X10531Y-12555D01*
X10482Y-12579D01*
X10434Y-12579D01*
X10385Y-12555D01*
X10360Y-12530D01*
X10336Y-12482D01*
X10336Y-12311D01*
X10068Y-12823D02*
X10409Y-12823D01*
X10312Y-12823D02*
X10360Y-12847D01*
X10385Y-12872D01*
X10409Y-12920D01*
X10409Y-12969D01*
X10092Y-13335D02*
X10068Y-13286D01*
X10068Y-13188D01*
X10092Y-13140D01*
X10141Y-13115D01*
X10336Y-13115D01*
X10385Y-13140D01*
X10409Y-13188D01*
X10409Y-13286D01*
X10385Y-13335D01*
X10336Y-13359D01*
X10287Y-13359D01*
X10239Y-13115D01*
X10068Y-13798D02*
X10336Y-13798D01*
X10385Y-13773D01*
X10409Y-13725D01*
X10409Y-13627D01*
X10385Y-13578D01*
X10092Y-13798D02*
X10068Y-13749D01*
X10068Y-13627D01*
X10092Y-13578D01*
X10141Y-13554D01*
X10190Y-13554D01*
X10239Y-13578D01*
X10263Y-13627D01*
X10263Y-13749D01*
X10287Y-13798D01*
X10068Y-14041D02*
X10580Y-14041D01*
X10263Y-14090D02*
X10068Y-14236D01*
X10409Y-14236D02*
X10214Y-14041D01*
X10068Y-14529D02*
X10092Y-14480D01*
X10117Y-14456D01*
X10165Y-14431D01*
X10312Y-14431D01*
X10360Y-14456D01*
X10385Y-14480D01*
X10409Y-14529D01*
X10409Y-14602D01*
X10385Y-14651D01*
X10360Y-14675D01*
X10312Y-14700D01*
X10165Y-14700D01*
X10117Y-14675D01*
X10092Y-14651D01*
X10068Y-14602D01*
X10068Y-14529D01*
X10409Y-15138D02*
X10068Y-15138D01*
X10409Y-14919D02*
X10141Y-14919D01*
X10092Y-14943D01*
X10068Y-14992D01*
X10068Y-15065D01*
X10092Y-15114D01*
X10117Y-15138D01*
X10409Y-15309D02*
X10409Y-15504D01*
X10580Y-15382D02*
X10141Y-15382D01*
X10092Y-15406D01*
X10068Y-15455D01*
X10068Y-15504D01*
G54D13*
X16679Y-11554D02*
G75*
G03X16679Y-11554I-50J0D01*
G74*
G01*
X16629Y-12004D02*
X16629Y-11604D01*
X16629Y-11604D02*
X17229Y-11604D01*
X17229Y-11604D02*
X17229Y-12004D01*
X17229Y-12404D02*
X17229Y-12804D01*
X17229Y-12804D02*
X16629Y-12804D01*
X16629Y-12804D02*
X16629Y-12404D01*
X15498Y-11554D02*
G75*
G03X15498Y-11554I-50J0D01*
G74*
G01*
X15448Y-12004D02*
X15448Y-11604D01*
X15448Y-11604D02*
X16048Y-11604D01*
X16048Y-11604D02*
X16048Y-12004D01*
X16048Y-12404D02*
X16048Y-12804D01*
X16048Y-12804D02*
X15448Y-12804D01*
X15448Y-12804D02*
X15448Y-12404D01*
G54D10*
X15551Y-10000D02*
X17204Y-10000D01*
X17204Y-10000D02*
X17204Y-11102D01*
X17204Y-11102D02*
X15551Y-11102D01*
X15551Y-11102D02*
X15551Y-10000D01*
X12637Y-13543D02*
X10984Y-13543D01*
X10984Y-13543D02*
X10984Y-12440D01*
X10984Y-12440D02*
X12637Y-12440D01*
X12637Y-12440D02*
X12637Y-13543D01*
G54D14*
X12061Y-11561D02*
X12061Y-12061D01*
X11561Y-11561D02*
X11561Y-12051D01*
X11411Y-11561D02*
X12211Y-11561D01*
X12211Y-11561D02*
X12211Y-12061D01*
X12211Y-12061D02*
X11411Y-12061D01*
X11411Y-12061D02*
X11411Y-11561D01*
X11561Y-10879D02*
X11561Y-10379D01*
X12061Y-10879D02*
X12061Y-10389D01*
X12211Y-10879D02*
X11411Y-10879D01*
X11411Y-10879D02*
X11411Y-10379D01*
X11411Y-10379D02*
X12211Y-10379D01*
X12211Y-10379D02*
X12211Y-10879D01*
G54D10*
X14448Y-11574D02*
X14527Y-11496D01*
X13110Y-11574D02*
X13110Y-12834D01*
X13110Y-12834D02*
X14448Y-12834D01*
X14448Y-12834D02*
X14448Y-11574D01*
X14448Y-11574D02*
X13110Y-11574D01*
G54D15*
X11779Y-8555D02*
X15779Y-8555D01*
X11779Y-9555D02*
X15779Y-9555D01*
X15779Y-9555D02*
X15779Y-8555D01*
X11779Y-8555D02*
X11779Y-9555D01*
G54D16*
X12711Y-14960D02*
G75*
G03X12711Y-14960I-900J0D01*
G74*
G01*
X16648Y-14960D02*
G75*
G03X16648Y-14960I-900J0D01*
G74*
G01*
M02*
