G04 (created by PCBNEW (2013-07-07 BZR 4022)-stable) date 4/12/2015 3:28:36 PM*
%MOIN*%
G04 Gerber Fmt 3.4, Leading zero omitted, Abs format*
%FSLAX34Y34*%
G01*
G70*
G90*
G04 APERTURE LIST*
%ADD10C,0.00590551*%
%ADD11C,0.00787402*%
%ADD12C,0.0108268*%
%ADD13C,0.011811*%
G04 APERTURE END LIST*
G54D10*
G54D11*
X14724Y-10708D02*
X14724Y-12283D01*
X17559Y-10708D02*
X14724Y-10708D01*
X17559Y-12283D02*
X17559Y-10708D01*
X14724Y-12283D02*
X17559Y-12283D01*
X10708Y-11732D02*
X10748Y-11732D01*
X10708Y-13543D02*
X10708Y-11732D01*
X12913Y-11732D02*
X10748Y-11732D01*
X12913Y-13543D02*
X12913Y-11732D01*
X10708Y-13543D02*
X12913Y-13543D01*
G54D12*
X12491Y-13206D02*
X12739Y-13206D01*
X12615Y-13206D02*
X12615Y-12773D01*
X12656Y-12835D01*
X12697Y-12876D01*
X12739Y-12897D01*
X11976Y-13041D02*
X11646Y-13041D01*
X11027Y-12773D02*
X10986Y-12773D01*
X10944Y-12794D01*
X10924Y-12814D01*
X10903Y-12856D01*
X10883Y-12938D01*
X10883Y-13041D01*
X10903Y-13124D01*
X10924Y-13165D01*
X10944Y-13186D01*
X10986Y-13206D01*
X11027Y-13206D01*
X11068Y-13186D01*
X11089Y-13165D01*
X11109Y-13124D01*
X11130Y-13041D01*
X11130Y-12938D01*
X11109Y-12856D01*
X11089Y-12814D01*
X11068Y-12794D01*
X11027Y-12773D01*
X12563Y-12216D02*
X12357Y-12216D01*
X12604Y-12340D02*
X12460Y-11907D01*
X12316Y-12340D01*
X12171Y-12340D02*
X12171Y-11907D01*
X12068Y-11907D01*
X12006Y-11928D01*
X11965Y-11969D01*
X11945Y-12010D01*
X11924Y-12093D01*
X11924Y-12155D01*
X11945Y-12237D01*
X11965Y-12278D01*
X12006Y-12320D01*
X12068Y-12340D01*
X12171Y-12340D01*
X11738Y-12340D02*
X11738Y-11907D01*
X11635Y-11907D01*
X11573Y-11928D01*
X11532Y-11969D01*
X11511Y-12010D01*
X11491Y-12093D01*
X11491Y-12155D01*
X11511Y-12237D01*
X11532Y-12278D01*
X11573Y-12320D01*
X11635Y-12340D01*
X11738Y-12340D01*
X11058Y-12340D02*
X11202Y-12134D01*
X11305Y-12340D02*
X11305Y-11907D01*
X11140Y-11907D01*
X11099Y-11928D01*
X11078Y-11948D01*
X11058Y-11990D01*
X11058Y-12051D01*
X11078Y-12093D01*
X11099Y-12113D01*
X11140Y-12134D01*
X11305Y-12134D01*
X17368Y-11356D02*
X17368Y-10923D01*
X17203Y-10923D01*
X17162Y-10943D01*
X17141Y-10964D01*
X17121Y-11005D01*
X17121Y-11067D01*
X17141Y-11108D01*
X17162Y-11129D01*
X17203Y-11150D01*
X17368Y-11150D01*
X16750Y-11067D02*
X16750Y-11356D01*
X16935Y-11067D02*
X16935Y-11294D01*
X16915Y-11335D01*
X16873Y-11356D01*
X16811Y-11356D01*
X16770Y-11335D01*
X16750Y-11315D01*
X16482Y-11356D02*
X16523Y-11335D01*
X16543Y-11294D01*
X16543Y-10923D01*
X16255Y-11356D02*
X16296Y-11335D01*
X16317Y-11294D01*
X16317Y-10923D01*
X16090Y-11191D02*
X15760Y-11191D01*
X15553Y-10923D02*
X15553Y-11273D01*
X15533Y-11315D01*
X15512Y-11335D01*
X15471Y-11356D01*
X15389Y-11356D01*
X15347Y-11335D01*
X15327Y-11315D01*
X15306Y-11273D01*
X15306Y-10923D01*
X15100Y-11067D02*
X15100Y-11500D01*
X15100Y-11088D02*
X15059Y-11067D01*
X14976Y-11067D01*
X14935Y-11088D01*
X14914Y-11108D01*
X14894Y-11150D01*
X14894Y-11273D01*
X14914Y-11315D01*
X14935Y-11335D01*
X14976Y-11356D01*
X15059Y-11356D01*
X15100Y-11335D01*
X17214Y-11844D02*
X17069Y-11844D01*
X17007Y-12070D02*
X17214Y-12070D01*
X17214Y-11637D01*
X17007Y-11637D01*
X16822Y-12070D02*
X16822Y-11637D01*
X16574Y-12070D01*
X16574Y-11637D01*
X16059Y-11617D02*
X16430Y-12174D01*
X15914Y-12070D02*
X15914Y-11637D01*
X15811Y-11637D01*
X15749Y-11658D01*
X15708Y-11699D01*
X15688Y-11741D01*
X15667Y-11823D01*
X15667Y-11885D01*
X15688Y-11967D01*
X15708Y-12009D01*
X15749Y-12050D01*
X15811Y-12070D01*
X15914Y-12070D01*
X15481Y-12070D02*
X15481Y-11637D01*
X15296Y-12050D02*
X15234Y-12070D01*
X15131Y-12070D01*
X15089Y-12050D01*
X15069Y-12029D01*
X15048Y-11988D01*
X15048Y-11947D01*
X15069Y-11905D01*
X15089Y-11885D01*
X15131Y-11864D01*
X15213Y-11844D01*
X15254Y-11823D01*
X15275Y-11802D01*
X15296Y-11761D01*
X15296Y-11720D01*
X15275Y-11679D01*
X15254Y-11658D01*
X15213Y-11637D01*
X15110Y-11637D01*
X15048Y-11658D01*
G54D13*
X17103Y-10230D02*
X17328Y-10230D01*
X17328Y-9758D01*
X16766Y-10208D02*
X16811Y-10230D01*
X16901Y-10230D01*
X16946Y-10208D01*
X16968Y-10163D01*
X16968Y-9983D01*
X16946Y-9938D01*
X16901Y-9915D01*
X16811Y-9915D01*
X16766Y-9938D01*
X16743Y-9983D01*
X16743Y-10028D01*
X16968Y-10073D01*
X16361Y-10208D02*
X16406Y-10230D01*
X16496Y-10230D01*
X16541Y-10208D01*
X16563Y-10163D01*
X16563Y-9983D01*
X16541Y-9938D01*
X16496Y-9915D01*
X16406Y-9915D01*
X16361Y-9938D01*
X16338Y-9983D01*
X16338Y-10028D01*
X16563Y-10073D01*
X16136Y-10230D02*
X16136Y-9915D01*
X16136Y-9960D02*
X16113Y-9938D01*
X16068Y-9915D01*
X16001Y-9915D01*
X15956Y-9938D01*
X15933Y-9983D01*
X15933Y-10230D01*
X15933Y-9983D02*
X15911Y-9938D01*
X15866Y-9915D01*
X15798Y-9915D01*
X15753Y-9938D01*
X15731Y-9983D01*
X15731Y-10230D01*
X15303Y-10230D02*
X15303Y-9983D01*
X15326Y-9938D01*
X15371Y-9915D01*
X15461Y-9915D01*
X15506Y-9938D01*
X15303Y-10208D02*
X15348Y-10230D01*
X15461Y-10230D01*
X15506Y-10208D01*
X15528Y-10163D01*
X15528Y-10118D01*
X15506Y-10073D01*
X15461Y-10050D01*
X15348Y-10050D01*
X15303Y-10028D01*
X15078Y-9915D02*
X15078Y-10230D01*
X15078Y-9960D02*
X15056Y-9938D01*
X15011Y-9915D01*
X14943Y-9915D01*
X14898Y-9938D01*
X14876Y-9983D01*
X14876Y-10230D01*
X14043Y-9780D02*
X14088Y-9758D01*
X14156Y-9758D01*
X14223Y-9780D01*
X14268Y-9825D01*
X14291Y-9870D01*
X14313Y-9960D01*
X14313Y-10028D01*
X14291Y-10118D01*
X14268Y-10163D01*
X14223Y-10208D01*
X14156Y-10230D01*
X14111Y-10230D01*
X14043Y-10208D01*
X14021Y-10185D01*
X14021Y-10028D01*
X14111Y-10028D01*
X13638Y-10208D02*
X13683Y-10230D01*
X13773Y-10230D01*
X13818Y-10208D01*
X13841Y-10163D01*
X13841Y-9983D01*
X13818Y-9938D01*
X13773Y-9915D01*
X13683Y-9915D01*
X13638Y-9938D01*
X13616Y-9983D01*
X13616Y-10028D01*
X13841Y-10073D01*
X13346Y-10230D02*
X13391Y-10208D01*
X13413Y-10185D01*
X13436Y-10140D01*
X13436Y-10005D01*
X13413Y-9960D01*
X13391Y-9938D01*
X13346Y-9915D01*
X13278Y-9915D01*
X13233Y-9938D01*
X13211Y-9960D01*
X13188Y-10005D01*
X13188Y-10140D01*
X13211Y-10185D01*
X13233Y-10208D01*
X13278Y-10230D01*
X13346Y-10230D01*
X12986Y-9915D02*
X12986Y-10388D01*
X12986Y-9938D02*
X12941Y-9915D01*
X12851Y-9915D01*
X12806Y-9938D01*
X12784Y-9960D01*
X12761Y-10005D01*
X12761Y-10140D01*
X12784Y-10185D01*
X12806Y-10208D01*
X12851Y-10230D01*
X12941Y-10230D01*
X12986Y-10208D01*
X12559Y-10230D02*
X12559Y-9758D01*
X12356Y-10230D02*
X12356Y-9983D01*
X12379Y-9938D01*
X12424Y-9915D01*
X12491Y-9915D01*
X12536Y-9938D01*
X12559Y-9960D01*
X12176Y-9915D02*
X12064Y-10230D01*
X11951Y-9915D02*
X12064Y-10230D01*
X12109Y-10343D01*
X12131Y-10365D01*
X12176Y-10388D01*
X11794Y-10208D02*
X11749Y-10230D01*
X11659Y-10230D01*
X11614Y-10208D01*
X11591Y-10163D01*
X11591Y-10140D01*
X11614Y-10095D01*
X11659Y-10073D01*
X11726Y-10073D01*
X11771Y-10050D01*
X11794Y-10005D01*
X11794Y-9983D01*
X11771Y-9938D01*
X11726Y-9915D01*
X11659Y-9915D01*
X11614Y-9938D01*
X11389Y-10230D02*
X11389Y-9915D01*
X11389Y-9758D02*
X11411Y-9780D01*
X11389Y-9803D01*
X11366Y-9780D01*
X11389Y-9758D01*
X11389Y-9803D01*
X10961Y-10208D02*
X11006Y-10230D01*
X11096Y-10230D01*
X11141Y-10208D01*
X11164Y-10185D01*
X11186Y-10140D01*
X11186Y-10005D01*
X11164Y-9960D01*
X11141Y-9938D01*
X11096Y-9915D01*
X11006Y-9915D01*
X10961Y-9938D01*
X10556Y-10230D02*
X10556Y-9983D01*
X10579Y-9938D01*
X10624Y-9915D01*
X10714Y-9915D01*
X10759Y-9938D01*
X10556Y-10208D02*
X10601Y-10230D01*
X10714Y-10230D01*
X10759Y-10208D01*
X10781Y-10163D01*
X10781Y-10118D01*
X10759Y-10073D01*
X10714Y-10050D01*
X10601Y-10050D01*
X10556Y-10028D01*
X10264Y-10230D02*
X10309Y-10208D01*
X10331Y-10163D01*
X10331Y-9758D01*
M02*
