G04 (created by PCBNEW (2013-07-07 BZR 4022)-stable) date 4/12/2015 3:28:36 PM*
%MOIN*%
G04 Gerber Fmt 3.4, Leading zero omitted, Abs format*
%FSLAX34Y34*%
G01*
G70*
G90*
G04 APERTURE LIST*
%ADD10C,0.00590551*%
%ADD11R,0.06X0.06*%
%ADD12C,0.06*%
%ADD13C,0.16*%
%ADD14C,0.035*%
%ADD15C,0.02*%
%ADD16C,0.01*%
G04 APERTURE END LIST*
G54D10*
G54D11*
X15279Y-9055D03*
G54D12*
X14279Y-9055D03*
X13279Y-9055D03*
X12279Y-9055D03*
G54D13*
X11811Y-14960D03*
X15748Y-14960D03*
G54D14*
X14645Y-13464D03*
X15039Y-12598D03*
X11338Y-13779D03*
X14173Y-11259D03*
G54D15*
X14279Y-9055D02*
X14279Y-9161D01*
X14279Y-9161D02*
X14645Y-9527D01*
X14645Y-9527D02*
X14645Y-13464D01*
G54D16*
X14645Y-9527D02*
X14645Y-13464D01*
X14279Y-9161D02*
X14645Y-9527D01*
G54D15*
X15279Y-9055D02*
X15279Y-12358D01*
X15279Y-12358D02*
X15039Y-12598D01*
G54D16*
X15279Y-12358D02*
X15039Y-12598D01*
G54D10*
G36*
X17446Y-15872D02*
X16291Y-15872D01*
X16342Y-15851D01*
X16637Y-15556D01*
X16797Y-15170D01*
X16798Y-14752D01*
X16638Y-14366D01*
X16343Y-14071D01*
X15957Y-13910D01*
X15540Y-13910D01*
X15154Y-14069D01*
X14858Y-14365D01*
X14698Y-14750D01*
X14697Y-15168D01*
X14857Y-15554D01*
X15152Y-15850D01*
X15204Y-15872D01*
X12354Y-15872D01*
X12405Y-15851D01*
X12700Y-15556D01*
X12860Y-15170D01*
X12861Y-14752D01*
X12701Y-14366D01*
X12594Y-14259D01*
X12594Y-9441D01*
X12279Y-9125D01*
X12208Y-9196D01*
X12208Y-9055D01*
X11893Y-8739D01*
X11798Y-8767D01*
X11724Y-8973D01*
X11735Y-9191D01*
X11798Y-9342D01*
X11893Y-9370D01*
X12208Y-9055D01*
X12208Y-9196D01*
X11964Y-9441D01*
X11991Y-9536D01*
X12197Y-9609D01*
X12416Y-9598D01*
X12567Y-9536D01*
X12594Y-9441D01*
X12594Y-14259D01*
X12406Y-14071D01*
X12020Y-13910D01*
X11603Y-13910D01*
X11217Y-14069D01*
X10921Y-14365D01*
X10761Y-14750D01*
X10760Y-15168D01*
X10920Y-15554D01*
X11215Y-15850D01*
X11267Y-15872D01*
X10112Y-15872D01*
X10112Y-8537D01*
X12079Y-8537D01*
X11991Y-8573D01*
X11964Y-8669D01*
X12279Y-8984D01*
X12594Y-8669D01*
X12567Y-8573D01*
X12465Y-8537D01*
X13092Y-8537D01*
X12968Y-8588D01*
X12813Y-8743D01*
X12782Y-8818D01*
X12760Y-8767D01*
X12665Y-8739D01*
X12350Y-9055D01*
X12665Y-9370D01*
X12760Y-9342D01*
X12780Y-9287D01*
X12812Y-9366D01*
X12967Y-9521D01*
X13169Y-9605D01*
X13388Y-9605D01*
X13590Y-9521D01*
X13745Y-9367D01*
X13779Y-9285D01*
X13812Y-9366D01*
X13967Y-9521D01*
X14169Y-9605D01*
X14228Y-9605D01*
X14295Y-9672D01*
X14295Y-13213D01*
X14285Y-13223D01*
X14220Y-13379D01*
X14220Y-13548D01*
X14285Y-13704D01*
X14404Y-13824D01*
X14560Y-13889D01*
X14729Y-13889D01*
X14886Y-13825D01*
X15005Y-13705D01*
X15070Y-13549D01*
X15070Y-13380D01*
X15006Y-13224D01*
X14995Y-13213D01*
X14995Y-13023D01*
X15123Y-13023D01*
X15279Y-12958D01*
X15399Y-12839D01*
X15464Y-12683D01*
X15464Y-12668D01*
X15527Y-12605D01*
X15602Y-12492D01*
X15629Y-12358D01*
X15629Y-9604D01*
X15720Y-9567D01*
X15791Y-9496D01*
X15829Y-9405D01*
X15829Y-9305D01*
X15829Y-8705D01*
X15791Y-8613D01*
X15721Y-8543D01*
X15707Y-8537D01*
X17446Y-8537D01*
X17446Y-15872D01*
X17446Y-15872D01*
G37*
G54D16*
X17446Y-15872D02*
X16291Y-15872D01*
X16342Y-15851D01*
X16637Y-15556D01*
X16797Y-15170D01*
X16798Y-14752D01*
X16638Y-14366D01*
X16343Y-14071D01*
X15957Y-13910D01*
X15540Y-13910D01*
X15154Y-14069D01*
X14858Y-14365D01*
X14698Y-14750D01*
X14697Y-15168D01*
X14857Y-15554D01*
X15152Y-15850D01*
X15204Y-15872D01*
X12354Y-15872D01*
X12405Y-15851D01*
X12700Y-15556D01*
X12860Y-15170D01*
X12861Y-14752D01*
X12701Y-14366D01*
X12594Y-14259D01*
X12594Y-9441D01*
X12279Y-9125D01*
X12208Y-9196D01*
X12208Y-9055D01*
X11893Y-8739D01*
X11798Y-8767D01*
X11724Y-8973D01*
X11735Y-9191D01*
X11798Y-9342D01*
X11893Y-9370D01*
X12208Y-9055D01*
X12208Y-9196D01*
X11964Y-9441D01*
X11991Y-9536D01*
X12197Y-9609D01*
X12416Y-9598D01*
X12567Y-9536D01*
X12594Y-9441D01*
X12594Y-14259D01*
X12406Y-14071D01*
X12020Y-13910D01*
X11603Y-13910D01*
X11217Y-14069D01*
X10921Y-14365D01*
X10761Y-14750D01*
X10760Y-15168D01*
X10920Y-15554D01*
X11215Y-15850D01*
X11267Y-15872D01*
X10112Y-15872D01*
X10112Y-8537D01*
X12079Y-8537D01*
X11991Y-8573D01*
X11964Y-8669D01*
X12279Y-8984D01*
X12594Y-8669D01*
X12567Y-8573D01*
X12465Y-8537D01*
X13092Y-8537D01*
X12968Y-8588D01*
X12813Y-8743D01*
X12782Y-8818D01*
X12760Y-8767D01*
X12665Y-8739D01*
X12350Y-9055D01*
X12665Y-9370D01*
X12760Y-9342D01*
X12780Y-9287D01*
X12812Y-9366D01*
X12967Y-9521D01*
X13169Y-9605D01*
X13388Y-9605D01*
X13590Y-9521D01*
X13745Y-9367D01*
X13779Y-9285D01*
X13812Y-9366D01*
X13967Y-9521D01*
X14169Y-9605D01*
X14228Y-9605D01*
X14295Y-9672D01*
X14295Y-13213D01*
X14285Y-13223D01*
X14220Y-13379D01*
X14220Y-13548D01*
X14285Y-13704D01*
X14404Y-13824D01*
X14560Y-13889D01*
X14729Y-13889D01*
X14886Y-13825D01*
X15005Y-13705D01*
X15070Y-13549D01*
X15070Y-13380D01*
X15006Y-13224D01*
X14995Y-13213D01*
X14995Y-13023D01*
X15123Y-13023D01*
X15279Y-12958D01*
X15399Y-12839D01*
X15464Y-12683D01*
X15464Y-12668D01*
X15527Y-12605D01*
X15602Y-12492D01*
X15629Y-12358D01*
X15629Y-9604D01*
X15720Y-9567D01*
X15791Y-9496D01*
X15829Y-9405D01*
X15829Y-9305D01*
X15829Y-8705D01*
X15791Y-8613D01*
X15721Y-8543D01*
X15707Y-8537D01*
X17446Y-8537D01*
X17446Y-15872D01*
M02*
